<?xml version="1.0" encoding="utf-8"?>
<!-- Generator: Adobe Illustrator 26.4.1, SVG Export Plug-In . SVG Version: 6.00 Build 0)  -->
<svg version="1.1" id="Calque_1" xmlns="http://www.w3.org/2000/svg" xmlns:xlink="http://www.w3.org/1999/xlink" x="0px" y="0px"
	 viewBox="0 0 400 400" style="enable-background:new 0 0 400 400;" xml:space="preserve">
<style type="text/css">
	.st0{fill:#110F0E;}
</style>
<path class="st0" d="M308.2,195.7c24.6-15.3,42.3-41.3,45.9-72.4c6.3-54.1-32.5-103.1-86.6-109.3c-19.2-2.2-37.8,1.3-54.1,9.1
	C195.9,9.8,174.2,1.6,150.8,0.9V0.8H37.4V400h111.8c-31.6-31.6-49-76.8-43.4-124.6c8.8-76,70.8-133.4,146.7-134.2
	c2.8-9.7,4.4-20,4.4-30.7c0-24.6-8.1-47.3-21.8-65.6c6.6-2.1,13.7-3.2,21-3.2c38.8,0,70.2,31.4,70.2,70.2s-30.6,70.2-69.4,70.2l0,0
	c-36.1-0.3-68.9,17.6-88.7,45.8c-9.9,15.2-16.1,33.2-18.3,52.5c-1.2,10.5-0.8,20.8,0.9,30.7v-1.6c8.6,44.8,45.3,80.8,93,86.3
	c58.8,6.8,112-35.4,118.8-94.2C367.7,257.3,344.9,216.1,308.2,195.7z"/>
</svg>
